# xmcd
#
# Track frame offsets:
# 150
# 13152
# 23803
# 36401
# 41300
# 56655
# 71583
# 85308
# 99542
# 114760
# 129695
# 145451
# 156631
# 177181
# 185528
# 196171
# 207999
#
# Disc length: 2997 seconds
#
# Revision: 1
# Processed by: cddbd v1.5.2PL0 Copyright (c) Steve Scherf et al.
# Submitted via: CedeCatalogueitor 2.6.0.6 http://personales.ya.com/cdcatalogueitor
#
DISCID=f30bb311
DTITLE=Big Jim Adam - Rock Island Line
DYEAR=2008
DGENRE=
TTITLE0=Bring It on Home to Me
TTITLE1=Kind Hearted Woman
TTITLE2=Grandma's Hands
TTITLE3=ohn Thayer (Intro)
TTITLE4=John Thayer
TTITLE5=That's the Way It Was
TTITLE6=Feel Good Day
TTITLE7=Alone and Forsaken
TTITLE8=100 Reasons
TTITLE9=Love in Vain
TTITLE10=Need Your Love So Bad
TTITLE11=Stones in My Passway
TTITLE12=There Goes the Blues
TTITLE13=Creole Belle
TTITLE14=Rock Island Line
TTITLE15=Samarian Woman (Strange Man)
TTITLE16=Graspin' at the Wind
EXTD=
EXTT0=
EXTT1=
EXTT2=
EXTT3=
EXTT4=
EXTT5=
EXTT6=
EXTT7=
EXTT8=
EXTT9=
EXTT10=
EXTT11=
EXTT12=
EXTT13=
EXTT14=
EXTT15=
EXTT16=
PLAYORDER=
